<svg width="13" height="12" viewBox="0 0 13 12" fill="none" xmlns="http://www.w3.org/2000/svg">
<path d="M10.375 10.7778L12.25 8.94444L10.375 7.11111M10.375 1L12.25 2.83333L10.375 4.66667V1Z" stroke="#FFA738" stroke-width="1.5" stroke-linecap="round" stroke-linejoin="round"/>
<path d="M4.75 8.33394C4.20934 8.73104 3.5512 8.94533 2.875 8.94444H1M1 2.83333H2.875C3.7038 2.83333 4.49866 3.15526 5.08471 3.72828C5.67076 4.30131 6 5.0785 6 5.88889C6 6.69927 6.32924 7.47646 6.91529 8.04949C7.50134 8.62252 8.2962 8.94444 9.125 8.94444H12.25L1 2.83333ZM12.25 2.83333H9.125C8.44925 2.83227 7.79152 3.04636 7.25125 3.44322L12.25 2.83333Z" stroke="#FFA738" stroke-width="1.5" stroke-linecap="round" stroke-linejoin="round"/>
</svg>
