<svg width="14" height="17" viewBox="0 0 14 17" fill="none" xmlns="http://www.w3.org/2000/svg">
<path d="M4 1.51111H2C1.44772 1.51111 1 1.94887 1 2.48889V14.2222C1 14.7622 1.44772 15.2 2 15.2H4C4.55228 15.2 5 14.7622 5 14.2222V2.48889C5 1.94887 4.55228 1.51111 4 1.51111Z" stroke="white" stroke-width="2" stroke-linecap="round" stroke-linejoin="round"/>
<path d="M12 1.51111H10C9.44772 1.51111 9 1.94887 9 2.48889V14.2222C9 14.7622 9.44772 15.2 10 15.2H12C12.5523 15.2 13 14.7622 13 14.2222V2.48889C13 1.94887 12.5523 1.51111 12 1.51111Z" stroke="white" stroke-width="2" stroke-linecap="round" stroke-linejoin="round"/>
</svg>
